<?xml version="1.0" encoding="UTF-8" standalone="no" ?>
<!DOCTYPE svg PUBLIC "-//W3C//DTD SVG 1.1//EN" "http://www.w3.org/Graphics/SVG/1.1/DTD/svg11.dtd">
<svg xmlns="http://www.w3.org/2000/svg" xmlns:xlink="http://www.w3.org/1999/xlink" version="1.1" width="112.76" height="34.65" viewBox="0 0 112.76 34.65" xml:space="preserve">
<desc>Created with Fabric.js 4.6.0</desc>
<defs>
</defs>
<g transform="matrix(1 0 0 1 56.3 17.31)" id="mtMtgOGbBZiFWcEkADEjJ"  >
<g style="" vector-effect="non-scaling-stroke"   >
		<g transform="matrix(1 0 0 1 -37.98 0)" id="rHOg_pYh7tPTdmgb2ZjHv"  >
<g style="" vector-effect="non-scaling-stroke"   >
		<g transform="matrix(1 0 0 1 18.32 3.85)" id="KtP66o-z3-cfAjMWZgJUi"  >
<path style="stroke: rgb(0,0,0); stroke-width: 1; stroke-dasharray: none; stroke-linecap: butt; stroke-dashoffset: 0; stroke-linejoin: miter; stroke-miterlimit: 4; fill: rgb(255,255,255); fill-opacity: 0; fill-rule: nonzero; opacity: 1;" vector-effect="non-scaling-stroke"  transform=" translate(0, 0)" d="M 0 0" stroke-linecap="round" />
</g>
		<g transform="matrix(1 0 0 1 10.08 8.89)" id="wgV7HDs0ekXgka1tAdSC5"  >
<path style="stroke: none; stroke-width: 1; stroke-dasharray: none; stroke-linecap: butt; stroke-dashoffset: 0; stroke-linejoin: miter; stroke-miterlimit: 4; fill: rgb(255,255,255); fill-rule: evenodd; opacity: 1;" vector-effect="non-scaling-stroke"  transform=" translate(-3990.32, -440.29)" d="M 3996.8 447.652 C 3996.282 447.522 3995.724 447.34299999999996 3995.2000000000003 447.214 C 3994.543 447.066 3993.8840000000005 446.889 3993.2120000000004 446.75 C 3992.7240000000006 446.641 3992.2120000000004 446.523 3991.7120000000004 446.424 C 3991.6970119437465 446.3375173385204 3991.6909800553854 446.2497198523789 3991.6940000000004 446.162 C 3991.58719152018 443.6774886753466 3991.2832359636805 441.2053836927274 3990.7850000000003 438.769 C 3990.6000000000004 438.083 3990.5850000000005 437.294 3990.396 436.61 C 3990.1430770757624 435.7104319835457 3989.941089679483 434.7973154069759 3989.791 433.875 C 3989.791 433.875 3989.608 433.175 3989.453 432.402 L 3989.453 432.387 L 3988.88 432.73 C 3988.545149985794 432.9475758465144 3988.144393685321 433.0403303966239 3987.748 432.992 C 3987.3567873481074 432.91308175288646 3986.97825583152 432.7808480764253 3986.623 432.59900000000005 C 3986.434 432.516 3986.251 432.43600000000004 3986.045 432.357 C 3986.03 432.40200000000004 3986.016 432.45700000000005 3986.016 432.45700000000005 L 3985.746 433.5520000000001 C 3985.491244101967 434.2944843479612 3985.293667532518 435.05537144113407 3985.155 435.8280000000001 C 3984.9860000000003 436.49700000000007 3984.755 438.0170000000001 3984.5820000000003 438.6890000000001 C 3984.0364977888225 440.9271478390995 3983.701704000457 443.21144585711625 3983.5820000000003 445.51200000000006 L 3983.514 446.6120000000001 L 3985.067 446.7240000000001 C 3985.759 446.7530000000001 3986.449 446.7530000000001 3987.124 446.8060000000001 C 3987.3239999999996 446.8380000000001 3987.5469999999996 446.8540000000001 3987.7439999999997 446.8690000000001 C 3988.2189999999996 446.93700000000007 3988.691 447.0040000000001 3989.1649999999995 447.0510000000001 C 3989.8379999999993 447.1150000000001 3990.5259999999994 447.1510000000001 3991.2069999999994 447.2440000000001 C 3991.8879999999995 447.33700000000005 3992.5509999999995 447.4440000000001 3993.2249999999995 447.5440000000001 C 3993.8989999999994 447.6440000000001 3994.5409999999993 447.8440000000001 3995.1979999999994 447.94900000000007 C 3995.7209999999995 448.06500000000005 3996.2599999999993 448.11600000000004 3996.7819999999992 448.21600000000007 C 3996.880445578234 448.22404590796015 3996.979409387539 448.2089787536023 3997.0709999999995 448.1720000000001 C 3997.1169999999993 448.1330000000001 3997.1169999999993 448.00200000000007 3997.1169999999993 447.9500000000001 C 3997.0879999999993 447.7730000000001 3996.7979999999993 447.6570000000001 3996.7979999999993 447.6570000000001 M 3989.1289999999995 446.0690000000001 C 3988.6599999999994 446.0200000000001 3988.2039999999993 445.9430000000001 3987.7449999999994 445.8910000000001 C 3987.5279999999993 445.8590000000001 3987.3069999999993 445.8280000000001 3987.0739999999996 445.81200000000007 C 3986.3969999999995 445.7300000000001 3985.7269999999994 445.67800000000005 3985.0329999999994 445.6120000000001 C 3984.7979999999993 445.5970000000001 3984.5449999999996 445.5830000000001 3984.3059999999996 445.56500000000005 C 3984.5813007873912 444.88692677316186 3984.8180124704177 444.1938189396451 3985.0149999999994 443.48900000000003 C 3985.4015077773092 442.4478592199819 3985.689763785237 441.372841750231 3985.8759999999993 440.278 C 3986.363999999999 438.528 3987.2239999999993 437.23400000000004 3987.6479999999992 435.125 C 3987.678999999999 435.241 3987.7129999999993 435.356 3987.747999999999 435.452 C 3988.271999999999 437.334 3988.979999999999 438.352 3989.2149999999992 440.036 C 3989.4726163786722 441.12095215761207 3989.806786523901 442.1862865806016 3990.2149999999992 443.224 C 3990.584999999999 444.452 3991.088999999999 446.089 3991.088999999999 446.089 C 3991.128240802417 446.165860150818 3991.157157548403 446.24756677029006 3991.174999999999 446.332 C 3990.500999999999 446.219 3989.808999999999 446.168 3989.134999999999 446.07" stroke-linecap="round" />
</g>
		<g transform="matrix(1 0 0 1 2.57 -13.13)" id="Pad1uLVAF46ZPfhFme4gy"  >
<path style="stroke: none; stroke-width: 1; stroke-dasharray: none; stroke-linecap: butt; stroke-dashoffset: 0; stroke-linejoin: miter; stroke-miterlimit: 4; fill: rgb(255,192,0); fill-rule: evenodd; opacity: 1;" vector-effect="non-scaling-stroke"  transform=" translate(-3968.7, -366.85)" d="M 3965.751 363.28 C 3964.239 364.39 3963.873 366.73699999999997 3964.7810000000004 368.80999999999995 C 3966.4420000000005 372.60099999999994 3972.4640000000004 371.19699999999995 3973.0700000000006 367.40999999999997 C 3973.4770000000008 364.775 3970.7180000000008 362.969 3968.3850000000007 362.69699999999995 C 3967.4644900038415 362.5564733834705 3966.524732453693 362.76590302733433 3965.7510000000007 363.28399999999993" stroke-linecap="round" />
</g>
		<g transform="matrix(1 0 0 1 -0.83 -5.94)" id="HRYmcSEAMS6lgJHWELjq9"  >
<path style="stroke: none; stroke-width: 1; stroke-dasharray: none; stroke-linecap: butt; stroke-dashoffset: 0; stroke-linejoin: miter; stroke-miterlimit: 4; fill: rgb(255,255,255); fill-rule: evenodd; opacity: 1;" vector-effect="non-scaling-stroke"  transform=" translate(-3964.88, -402.33)" d="M 3965.148 403.6 C 3965.837 402.981 3966.376 402.586 3965.837 401.32800000000003 C 3965.431 400.86800000000005 3964.081 400.886 3963.812 401.358 C 3963.4919999999997 402.077 3964.0119999999997 403.028 3964.285 403.501 C 3964.5409526875983 403.6671118962412 3964.8598158874647 403.70410298671294 3965.147 403.601" stroke-linecap="round" />
</g>
		<g transform="matrix(1 0 0 1 7.91 -8.1)" id="5B7V4X0ZNFoGSuIxMPUb2"  >
<path style="stroke: none; stroke-width: 1; stroke-dasharray: none; stroke-linecap: butt; stroke-dashoffset: 0; stroke-linejoin: miter; stroke-miterlimit: 4; fill: rgb(255,255,255); fill-rule: evenodd; opacity: 1;" vector-effect="non-scaling-stroke"  transform=" translate(-3997.62, -394.04)" d="M 3997.862 395.367 C 3998.2631380432613 395.16565293411486 3998.5640814500443 394.80852108645763 3998.69450905248 394.3790551259733 C 3998.824936654916 393.949589165489 3998.77342110728 393.4854165262166 3998.552 393.095 C 3997.9817584201865 392.5544814965622 3997.084505732371 392.56735010583355 3996.53 393.124 C 3996.3608633946246 393.8791802858003 3996.5331798756406 394.67051902982865 3997.001 395.28700000000003 C 3997.219 395.45000000000005 3997.5930000000003 395.355 3997.8630000000003 395.367" stroke-linecap="round" />
</g>
		<g transform="matrix(1 0 0 1 -9.39 -8.03)" id="pnA2qBVyzZ360DZC9WW4D"  >
<path style="stroke: none; stroke-width: 1; stroke-dasharray: none; stroke-linecap: butt; stroke-dashoffset: 0; stroke-linejoin: miter; stroke-miterlimit: 4; fill: rgb(255,255,255); fill-rule: evenodd; opacity: 1;" vector-effect="non-scaling-stroke"  transform=" translate(-3932.66, -394.38)" d="M 3932.911 395.676 C 3933.599 395.068 3934.1420000000003 394.676 3933.599 393.399 C 3933.199 392.943 3931.8450000000003 392.963 3931.578 393.433 C 3931.397036834945 394.1882323802314 3931.571666769543 394.98475119584305 3932.052 395.59499999999997 C 3932.27 395.758 3932.6400000000003 395.65799999999996 3932.9120000000003 395.676" stroke-linecap="round" />
</g>
		<g transform="matrix(1 0 0 1 -2.42 5.51)" id="cvphvZyAd7vGFbdv2Vuns"  >
<path style="stroke: none; stroke-width: 1; stroke-dasharray: none; stroke-linecap: butt; stroke-dashoffset: 0; stroke-linejoin: miter; stroke-miterlimit: 4; fill: rgb(255,255,255); fill-rule: evenodd; opacity: 1;" vector-effect="non-scaling-stroke"  transform=" translate(-3918.32, -416.48)" d="M 3923.278 425.031 C 3923.109 423.492 3922.8889999999997 421.955 3922.5719999999997 420.431 C 3922.3819999999996 419.758 3922.372 418.971 3922.1809999999996 418.28299999999996 C 3921.926825040638 417.3796732598884 3921.726472974701 416.46206079789755 3921.5809999999997 415.53499999999997 C 3921.5809999999997 415.53499999999997 3921.3419999999996 414.669 3921.191 413.79999999999995 C 3921.5985136623863 412.3173798458966 3921.903566896819 410.8084856435973 3922.104 409.28399999999993 C 3923.0269999999996 409.69199999999995 3923.955 410.11699999999996 3924.865 410.54499999999996 C 3925.4379999999996 410.806 3926.028 411.037 3926.6189999999997 411.28099999999995 C 3926.7699999999995 411.3469999999999 3926.9239999999995 411.42699999999996 3927.0759999999996 411.4959999999999 C 3927.7416255279354 411.9679438626711 3928.6186318870846 412.0172924703857 3929.3329999999996 411.62299999999993 C 3929.5669999999996 411.47999999999996 3929.805 411.3469999999999 3930.0409999999997 411.2149999999999 C 3930.4979999999996 410.9559999999999 3930.95 410.6929999999999 3931.4059999999995 410.4149999999999 C 3931.861999999999 410.1369999999999 3932.3059999999996 409.8559999999999 3932.7199999999993 409.5489999999999 C 3933.2731339332263 409.257320409331 3933.7568094693365 408.84970950266546 3934.1379999999995 408.3539999999999 C 3934.1755466286813 408.280953272162 3934.204409865302 408.20376089515366 3934.2239999999993 408.1239999999999 L 3934.2239999999993 408.0599999999999 C 3934.184999999999 407.7599999999999 3933.850999999999 407.5999999999999 3933.5459999999994 407.3859999999999 C 3932.8739999999993 406.9119999999999 3932.1309999999994 406.5039999999999 3931.4049999999993 406.07499999999993 C 3931.1616117176254 405.94148465029383 3930.9256022288823 405.79493844724107 3930.6979999999994 405.6359999999999 C 3930.222977050774 405.2905710400545 3929.701036450035 405.0147843613417 3929.1479999999992 404.8169999999999 C 3928.6406420376093 404.6736458165246 3928.0994352879047 404.7089495836286 3927.6149999999993 404.9169999999999 L 3927.580999999999 404.9169999999999 C 3926.151308818634 405.6261596892703 3924.79564499831 406.4756688190802 3923.533999999999 407.4529999999999 C 3923.9049999999993 407.6529999999999 3924.2399999999993 407.9589999999999 3924.613999999999 408.17299999999994 C 3924.950999999999 407.97299999999996 3925.713999999999 407.58299999999997 3926.044999999999 407.38499999999993 C 3926.1834451520967 407.8006929557973 3926.2854958802673 408.2276330513565 3926.349999999999 408.66099999999994 C 3926.4312591910207 409.08302990408794 3926.4880207955734 409.50940972181536 3926.519999999999 409.93799999999993 C 3926.211999999999 409.7579999999999 3925.6749999999993 409.5589999999999 3925.338999999999 409.34899999999993 C 3924.458999999999 408.82399999999996 3923.313999999999 407.8589999999999 3922.371999999999 407.38399999999996 C 3921.578440757081 406.98806986283057 3920.7100948544053 406.76450828035206 3919.823999999999 406.72799999999995 L 3919.6239999999993 406.71399999999994 C 3918.770104404882 406.75424920244086 3917.939868885773 407.0076171434691 3917.2089999999994 407.45099999999996 L 3917.1939999999995 407.465 L 3914.2279999999996 409.69 C 3914.2279999999996 409.69 3913.9079999999994 409.875 3913.4859999999994 410.102 C 3913.6049999999996 409.318 3913.6369999999993 408.50199999999995 3913.8579999999993 407.13899999999995 C 3914.5459999999994 407.48199999999997 3915.573999999999 407.893 3915.573999999999 407.893 L 3916.537999999999 407.15799999999996 L 3915.8779999999992 406.715 C 3915.662999999999 406.585 3915.426999999999 406.435 3915.1889999999994 406.28999999999996 C 3914.209058170452 405.6690851499966 3913.163347300343 405.1586387278332 3912.0709999999995 404.768 C 3910.7379999999994 404.368 3909.7769999999996 405.145 3908.7829999999994 405.734 C 3908.6647550853504 405.7940821752383 3908.552570664124 405.86541137440634 3908.4479999999994 405.947 C 3907.870916907605 406.2925756546862 3907.313398020467 406.66981897352815 3906.7779999999993 407.077 C 3906.6269999999995 407.19 3905.1269999999995 408.319 3905.209999999999 408.449 C 3906.1138051495745 409.45538185474345 3907.216758858603 410.26310219985504 3908.448999999999 410.821 C 3908.6329999999994 410.92100000000005 3908.820999999999 411.002 3908.984999999999 411.10200000000003 Q 3909.314999999999 411.247 3909.6419999999994 411.396 C 3909.9819999999995 411.558 3910.3319999999994 411.704 3910.7069999999994 411.853 C 3911.323331055363 412.2083770834089 3912.083839658457 412.20187046727773 3912.6939999999995 411.836 C 3912.8649999999993 411.75600000000003 3913.0169999999994 411.69100000000003 3913.1829999999995 411.60900000000004 C 3914.6149999999993 410.92300000000006 3916.1149999999993 410.05500000000006 3917.4829999999997 409.3 C 3917.494622738231 409.7894265277805 3917.5464640214464 410.2770690498944 3917.638 410.75800000000004 C 3917.7967911899464 411.7434821252389 3917.891324014179 412.73824802829785 3917.921 413.73600000000005 L 3917.8709999999996 413.93600000000004 C 3917.8709999999996 413.951 3917.8059999999996 414.115 3917.8059999999996 414.136 L 3917.5169999999994 415.201 C 3917.1169999999993 416.62300000000005 3917.3479999999995 415.918 3916.9439999999995 417.488 C 3916.7749999999996 418.176 3916.5439999999994 419.682 3916.3689999999997 420.368 C 3916.0689999999995 421.938 3915.7639999999997 423.48 3915.5959999999995 424.999 L 3915.2569999999996 424.999 C 3915.151027763184 425.0139317085405 3915.043957785764 425.0196198010909 3914.9369999999994 425.016 C 3914.9187172636503 422.85383925057704 3914.709909420161 420.69749671300167 3914.3129999999996 418.572 C 3914.1429999999996 417.899 3914.113 417.113 3913.9429999999998 416.425 C 3913.724404943622 415.5415442027129 3913.560097643494 414.6455350843309 3913.4509999999996 413.742 C 3913.33068666541 413.29480109665855 3913.236197261094 412.841051625048 3913.1679999999997 412.38300000000004 L 3912.8149999999996 412.53000000000003 C 3912.156408577555 412.9212708154652 3911.338009045496 412.92700458145345 3910.6739999999995 412.545 L 3910.3329999999996 412.433 L 3909.5939999999996 412.151 C 3909.589312587895 412.15099188283676 3909.5848298299384 412.15291955908924 3909.5816113376527 412.15632737445026 C 3909.5783928453675 412.1597351898113 3909.5767242624343 412.16432069803056 3909.5769999999998 412.169 C 3909.56 412.21999999999997 3909.5429999999997 412.269 3909.5429999999997 412.269 L 3909.307 413.086 C 3909.036129228917 413.9129814910047 3908.835419294997 414.7613154783757 3908.707 415.622 C 3908.622 415.922 3908.537 416.375 3908.4539999999997 416.831 C 3908.336 417.456 3908.2149999999997 418.11 3908.1319999999996 418.50300000000004 C 3907.555695248809 420.9509152887545 3907.234316130734 423.45190836299184 3907.173 425.96600000000007 C 3907.1049999999996 425.98100000000005 3907.0519999999997 425.98100000000005 3907.004 425.99500000000006 C 3906.326 426.1120000000001 3905.652 426.22600000000006 3904.979 426.35600000000005 C 3904.305 426.5040000000001 3903.614 426.59000000000003 3902.957 426.749 C 3902.857 426.766 3902.721 426.863 3902.6369999999997 426.879 C 3902.5005096675395 426.95512075296193 3902.416508568712 427.0997253842774 3902.4179999999997 427.25600000000003 C 3902.4179999999997 427.439 3902.6849999999995 427.46900000000005 3902.6849999999995 427.46900000000005 C 3902.882628025721 427.49200756005786 3903.0827102758103 427.4818682568438 3903.2769999999996 427.4390000000001 C 3903.9349999999995 427.32200000000006 3904.6089999999995 427.2050000000001 3905.2859999999996 427.1090000000001 C 3905.9599999999996 426.9950000000001 3906.633 426.9460000000001 3907.307 426.8450000000001 C 3907.691 426.7990000000001 3908.064 426.74500000000006 3908.4539999999997 426.6820000000001 C 3908.7389999999996 426.65100000000007 3909.028 426.61800000000005 3909.312 426.59100000000007 C 3909.989 426.50500000000005 3910.68 426.49100000000004 3911.35 426.42100000000005 C 3912.028 426.37300000000005 3912.7 426.273 3913.375 426.22100000000006 C 3914.05 426.1690000000001 3914.721 426.15400000000005 3915.398 426.12100000000004 L 3915.484 426.12100000000004 C 3915.433 426.72700000000003 3915.4139999999998 427.31500000000005 3915.4139999999998 427.92100000000005 L 3915.432 428.18000000000006 C 3915.446 428.4800000000001 3915.6839999999997 428.2010000000001 3915.9689999999996 427.56100000000004 C 3915.9689999999996 427.56100000000004 3916.2419999999997 426.92100000000005 3916.508 426.12100000000004 C 3916.6255157752084 425.80470308569284 3916.725664988945 425.48222261746054 3916.808 425.15500000000003 C 3916.841 425.08700000000005 3916.841 425.026 3916.874 424.97600000000006 C 3917.2335201421047 423.98758900784935 3917.4987021463253 422.96737490827707 3917.6659999999997 421.92900000000003 C 3918.1539999999995 420.19800000000004 3919.0159999999996 418.88800000000003 3919.4349999999995 416.79200000000003 C 3919.9939999999997 418.872 3920.7539999999995 419.90400000000005 3921.0049999999997 421.704 C 3921.2559054038875 422.7841090233765 3921.587845165644 423.8437757351265 3921.9979999999996 424.874 C 3922.0191054580127 424.90959464828387 3922.0314448197537 424.9496975739417 3922.0339999999997 424.99100000000004 C 3921.834 424.99100000000004 3921.6339999999996 424.97700000000003 3921.4249999999997 424.97700000000003 C 3920.7659999999996 424.96000000000004 3920.0959999999995 424.90900000000005 3919.419 424.90900000000005 C 3918.778 424.90900000000005 3918.14 424.946 3917.519 424.96000000000004 L 3917.502 424.96000000000004 L 3917.4339999999997 425.254 C 3917.3509999999997 425.545 3917.252 425.84200000000004 3917.167 426.12 L 3917.4339999999997 426.12 C 3918.093 426.104 3918.7509999999997 426.038 3919.4239999999995 426.038 C 3920.1179999999995 426.038 3920.7929999999997 426.08500000000004 3921.4809999999993 426.104 C 3921.7869999999994 426.104 3922.1079999999993 426.12 3922.4259999999995 426.12 C 3922.6969999999997 426.872 3922.9329999999995 427.462 3922.9329999999995 427.462 C 3923.2199999999993 428.113 3923.4029999999993 428.37899999999996 3923.4749999999995 428.09999999999997 C 3923.4749999999995 428.09999999999997 3923.4909999999995 428.09999999999997 3923.4909999999995 427.83599999999996 C 3923.4549999999995 427.28299999999996 3923.4199999999996 426.72499999999997 3923.3909999999996 426.15099999999995 Z M 3930.814 407.231 C 3931.0035651850235 407.35000489747114 3931.1995273411007 407.4585018322669 3931.401 407.556 C 3931.741 407.74 3932.06 407.93199999999996 3932.3799999999997 408.116 C 3932.0599999999995 408.36199999999997 3931.7259999999997 408.59 3931.401 408.834 C 3931.076 409.07800000000003 3930.7459999999996 409.308 3930.426 409.556 C 3930.543 408.91499999999996 3930.6459999999997 408.19399999999996 3930.814 407.22999999999996 M 3908.4429999999998 409.03 C 3908.1059999999998 408.811 3907.7509999999997 408.602 3907.379 408.40599999999995 C 3907.698267888122 408.09947022560146 3908.0559126732155 407.8356063568995 3908.4429999999998 407.6209999999999 C 3908.6429999999996 407.48799999999994 3908.843 407.37499999999994 3909.0429999999997 407.26199999999994 C 3909.1279999999997 407.47099999999995 3909.1769999999997 408.26199999999994 3909.365 408.89699999999993 C 3909.4139999999998 409.17599999999993 3909.4649999999997 409.45199999999994 3909.4979999999996 409.73099999999994 C 3909.1409999999996 409.5009999999999 3908.798 409.25399999999996 3908.4379999999996 409.03099999999995 M 3913.1569999999997 425.14799999999997 C 3912.448 425.19199999999995 3911.7749999999996 425.32599999999996 3911.0809999999997 425.393 C 3910.3869999999997 425.46 3909.72 425.55199999999996 3909.0429999999997 425.65299999999996 C 3908.843 425.66799999999995 3908.6429999999996 425.70399999999995 3908.4429999999998 425.73199999999997 C 3908.191 425.78299999999996 3907.953 425.815 3907.7189999999996 425.868 C 3907.7509999999997 425.783 3908.1189999999997 424.738 3908.4429999999998 423.673 C 3908.4739999999997 423.54200000000003 3908.526 423.431 3908.5579999999995 423.296 C 3908.937184405178 422.2488698287597 3909.2203506546766 421.16942401950007 3909.4039999999995 420.07099999999997 C 3909.8919999999994 418.32399999999996 3910.7509999999997 417.029 3911.1709999999994 414.91999999999996 C 3911.7299999999996 417.01099999999997 3912.486999999999 418.04599999999994 3912.7379999999994 419.82899999999995 C 3912.926522359118 420.9077613788641 3913.185408388262 421.9730356329826 3913.5129999999995 423.018 C 3913.724813555177 423.7219467720344 3913.9957790454673 424.40672005428553 3914.3229999999994 425.065 C 3913.9359999999992 425.08 3913.5459999999994 425.113 3913.1609999999996 425.148" stroke-linecap="round" />
</g>
</g>
</g>
		<g transform="matrix(1 0 0 1 19.35 3.66)" id="jEmLlbOgLC76zkFoJLBf5"  >
<g style="" vector-effect="non-scaling-stroke"   >
		<g transform="matrix(1 0 0 1 -32.51 -1.63)" id="-yq8xBgZO0Dsvv-O4RpFl"  >
<path style="stroke: none; stroke-width: 1; stroke-dasharray: none; stroke-linecap: butt; stroke-dashoffset: 0; stroke-linejoin: miter; stroke-miterlimit: 4; fill: rgb(255,255,255); fill-rule: nonzero; opacity: 1;" vector-effect="non-scaling-stroke"  transform=" translate(-4052.21, -420.73)" d="M 4056.453 418.354 C 4055.644404076246 417.59811288410873 4054.569338791318 417.1932555226277 4053.463 417.228 C 4052.5485050560715 417.2094010508473 4051.6694060512427 417.581331142789 4051.045940053936 418.2506121552069 C 4050.4224740566297 418.91989316762476 4050.1137095355884 419.8231160217027 4050.197 420.734 C 4050.1281621045637 421.6573769743475 4050.4547453684986 422.5665387062133 4051.0954119181174 423.23505203054026 C 4051.736078467736 423.9035653548673 4052.6305310799235 424.26851221061895 4053.556 424.239 C 4054.685235706468 424.2649319878788 4055.78376386072 423.8700036313211 4056.638 423.131 L 4056.638 425.51 C 4055.6736481990047 426.0642489970021 4054.57484456373 426.34111290510276 4053.4629999999997 426.31 C 4051.4457153590884 426.3482067650692 4049.5651000552057 425.29386250904713 4048.5452670151644 423.55293239850454 C 4047.525433975123 421.8120022879619 4047.525433975123 419.65599771203813 4048.5452670151644 417.9150676014955 C 4049.5651000552057 416.1741374909529 4051.4457153590884 415.1197932349308 4053.4629999999997 415.158 C 4054.5065763383404 415.13019129043056 4055.5386945381033 415.38114444468727 4056.4529999999995 415.885 Z" stroke-linecap="round" />
</g>
		<g transform="matrix(1 0 0 1 -23.48 -0.29)" id="A91pobNPD0v1hzA-VbH4S"  >
<path style="stroke: none; stroke-width: 1; stroke-dasharray: none; stroke-linecap: butt; stroke-dashoffset: 0; stroke-linejoin: miter; stroke-miterlimit: 4; fill: rgb(255,255,255); fill-rule: nonzero; opacity: 1;" vector-effect="non-scaling-stroke"  transform=" translate(-4086.6, -429.64)" d="M 4086.667 425.41 C 4088.995050062653 425.44741208091693 4090.8556008796504 427.3583878586865 4090.8307590867394 429.68660598492403 C 4090.8059172938283 432.01482411116154 4088.9050149643213 433.88566565964373 4086.5766966471756 433.87339487893166 C 4084.24837833003 433.86112409821965 4082.367300589207 431.97035063245687 4082.3669999999997 429.64200000000005 C 4082.3350793850655 428.4981730674209 4082.780179991396 427.39257084167764 4083.595725459627 426.58992237154916 C 4084.4112709278575 425.78727390142075 4085.523827153837 425.3598520075513 4086.667 425.41 Z M 4086.667 427.29900000000004 C 4085.6928523754386 427.17674417513496 4084.7447093827027 427.6701011139565 4084.285797522025 428.5380354347903 C 4083.826885661347 429.405969755624 4083.952989911796 430.4673245133637 4084.602500546729 431.20356225775095 C 4085.2520111816625 431.9398000021382 4086.2893610739206 432.19725175449156 4087.2077406348767 431.8501364088648 C 4088.126120195833 431.50302106323795 4088.7338434514254 430.623789211921 4088.734 429.64200000000005 C 4088.805307609366 429.0496314945948 4088.620289411231 428.455001081414 4088.225479336016 428.00766426663284 C 4087.8306692608016 427.56032745185166 4087.2636381468214 427.30285361298854 4086.667 427.3 Z" stroke-linecap="round" />
</g>
		<g transform="matrix(1 0 0 1 -15.71 -0.29)" id="O-KJVkeqqD9b8cU2kaB34"  >
<path style="stroke: none; stroke-width: 1; stroke-dasharray: none; stroke-linecap: butt; stroke-dashoffset: 0; stroke-linejoin: miter; stroke-miterlimit: 4; fill: rgb(255,255,255); fill-rule: nonzero; opacity: 1;" vector-effect="non-scaling-stroke"  transform=" translate(-4115.76, -429.64)" d="M 4115.833 425.41 C 4118.161050062652 425.44741208091693 4120.02160087965 427.3583878586865 4119.996759086739 429.68660598492403 C 4119.9719172938285 432.01482411116154 4118.071014964321 433.88566565964373 4115.742696647176 433.87339487893166 C 4113.41437833003 433.86112409821965 4111.533300589206 431.97035063245687 4111.532999999999 429.64200000000005 C 4111.501380146181 428.4982607037354 4111.946576369702 427.39283679588783 4112.762053450059 426.5902556321499 C 4113.577530530417 425.7876744684119 4114.6899099851935 425.3601541272933 4115.833 425.41 Z M 4115.833 427.29900000000004 C 4114.8588246220925 427.17631827020807 4113.910404660429 427.66936123373677 4113.451165671129 428.5372137698587 C 4112.99192668183 429.4050663059806 4113.117738439318 430.4665573277254 4113.767125662561 431.20301147296135 C 4114.416512885803 431.9394656181973 4115.453910851299 432.1971422542215 4116.372416764388 431.85013308810926 C 4117.290922677477 431.50312392199703 4117.898791157768 430.62386986415254 4117.898999999999 429.64200000000005 C 4117.970618799176 429.04973684799984 4117.785847679835 428.4550840906813 4117.391189543926 428.0077029898586 C 4116.996531408016 427.56032188903595 4116.4295709944745 427.3028181845865 4115.833 427.3 Z" stroke-linecap="round" />
</g>
		<g transform="matrix(1 0 0 1 -6.62 1.25)" id="bvjrGl5rSB18VECIQuReR"  >
<path style="stroke: none; stroke-width: 1; stroke-dasharray: none; stroke-linecap: butt; stroke-dashoffset: 0; stroke-linejoin: miter; stroke-miterlimit: 4; fill: rgb(255,255,255); fill-rule: nonzero; opacity: 1;" vector-effect="non-scaling-stroke"  transform=" translate(-4150.37, -431.19)" d="M 4146.311 426.082 C 4147.459659516237 425.63920992221824 4148.679951781997 425.41142203260966 4149.911 425.40999999999997 C 4152.611 425.40999999999997 4154.432 426.917 4154.432 429.47799999999995 C 4154.432 432.29299999999995 4152.715999999999 433.87799999999993 4149.855 433.87799999999993 C 4149.412705996453 433.886858877879 4148.971460139506 433.831618938536 4148.544999999999 433.71399999999994 L 4148.544999999999 436.9649999999999 L 4146.311999999999 436.9649999999999 Z M 4148.544 431.803 C 4148.91379923287 431.9197677448242 4149.3003041531065 431.97483793887886 4149.688 431.966 C 4150.355755092728 432.04258532074186 4151.022678222135 431.81581702878333 4151.505346156896 431.34806299088365 C 4151.988014091656 430.88030895298397 4152.235596122522 430.220829266588 4152.18 429.551 C 4152.211781638342 428.94071036441244 4151.974089111201 428.3472268737435 4151.529820651036 427.9275972189953 C 4151.085552190872 427.50796756424705 4150.479486217354 427.30448678653056 4149.872 427.371 C 4149.42078848175 427.3606423775816 4148.971178582149 427.428303762021 4148.543000000001 427.57099999999997 Z" stroke-linecap="round" />
</g>
		<g transform="matrix(1 0 0 1 4.67 -1.64)" id="KGOBKPvG6uH3p6dRujL_w"  >
<path style="stroke: none; stroke-width: 1; stroke-dasharray: none; stroke-linecap: butt; stroke-dashoffset: 0; stroke-linejoin: miter; stroke-miterlimit: 4; fill: rgb(255,255,255); fill-rule: nonzero; opacity: 1;" vector-effect="non-scaling-stroke"  transform=" translate(-4185.01, -421.24)" d="M 4183.913 426.638 L 4181.567999999999 419.101 L 4180.422999999999 426.638 L 4178.133999999999 426.638 L 4179.739999999999 415.849 L 4182.582999999999 415.849 L 4185.037999999999 423.74899999999997 L 4187.417999999999 415.849 L 4190.260999999999 415.849 L 4191.884999999998 426.638 L 4189.559999999999 426.638 L 4188.415999999998 419.101 L 4186.052999999998 426.638 Z" stroke-linecap="round" />
</g>
		<g transform="matrix(1 0 0 1 15.74 -0.29)" id="TFCGa_yvgKYbzaIgcDBiJ"  >
<path style="stroke: none; stroke-width: 1; stroke-dasharray: none; stroke-linecap: butt; stroke-dashoffset: 0; stroke-linejoin: miter; stroke-miterlimit: 4; fill: rgb(255,255,255); fill-rule: nonzero; opacity: 1;" vector-effect="non-scaling-stroke"  transform=" translate(-4235.02, -429.64)" d="M 4233.389 430.241 L 4233.389 430.277 C 4233.6532914402915 431.3741385273059 4234.684617111707 432.10958159600807 4235.808 432.002 C 4236.774382196931 432.02229044318517 4237.726987820507 431.7703645470994 4238.557 431.27500000000003 L 4238.557 433.12800000000004 C 4237.660618151648 433.6610136678164 4236.627823160751 433.9199945726358 4235.586 433.87300000000005 C 4232.91 433.87300000000005 4231.2300000000005 432.25600000000003 4231.2300000000005 429.732 C 4231.2300000000005 427.062 4232.947 425.40900000000005 4235.254000000001 425.40900000000005 C 4237.820000000001 425.40900000000005 4238.816000000001 427.08000000000004 4238.816000000001 429.22300000000007 L 4238.816000000001 430.24000000000007 Z M 4236.7480000000005 428.933 C 4236.7300000000005 427.933 4236.2480000000005 427.20799999999997 4235.198 427.20799999999997 C 4234.244594525171 427.23297351850124 4233.467736697005 427.9812034200016 4233.407 428.933 Z" stroke-linecap="round" />
</g>
		<g transform="matrix(1 0 0 1 24.04 1.34)" id="UI5mQkSBzq_sVpGtyZsBC"  >
<path style="stroke: none; stroke-width: 1; stroke-dasharray: none; stroke-linecap: butt; stroke-dashoffset: 0; stroke-linejoin: miter; stroke-miterlimit: 4; fill: rgb(255,255,255); fill-rule: nonzero; opacity: 1;" vector-effect="non-scaling-stroke"  transform=" translate(-4265.65, -431.28)" d="M 4267.409 433.347 C 4266.928613454257 433.5403160967799 4266.413638145621 433.6328959275461 4265.896 433.61899999999997 C 4263.4039999999995 433.61899999999997 4261.668 432.202 4261.668 429.551 C 4261.668 426.972 4263.420999999999 425.40999999999997 4266.3009999999995 425.40999999999997 C 4267.443567537716 425.4046624459549 4268.576942280401 425.6143079386156 4269.642 426.02799999999996 L 4269.642 433.56499999999994 C 4269.642 436.34399999999994 4267.371 437.14399999999995 4265.505999999999 437.14399999999995 C 4264.531975339931 437.154328639793 4263.567686139384 436.94945133089504 4262.682 436.5439999999999 L 4262.682 434.50999999999993 C 4263.5303026635875 435.03481789530275 4264.508479303913 435.3119217594176 4265.505999999999 435.30999999999995 C 4266.008329901738 435.3706307433542 4266.511561383663 435.2043509926032 4266.878875806974 434.85636890736197 C 4267.246190230284 434.50838682212066 4267.439409083342 434.01487151867644 4267.405999999999 433.50999999999993 Z M 4267.409 427.47999999999996 C 4267.049583570014 427.3735058042696 4266.6768580355265 427.3186239053342 4266.302 427.31699999999995 C 4265.490553287212 427.2687129480183 4264.7168221955835 427.66460454017033 4264.281258557942 428.35094390567957 C 4263.845694920301 429.0372832711888 4263.8169211995755 429.9059385698454 4264.206110679641 430.6195974209009 C 4264.595300159705 431.33325627195643 4265.341136563535 431.7794826871451 4266.1539999999995 431.78499999999997 C 4266.582731577091 431.7784866672368 4267.007188435614 431.6986684850763 4267.409 431.549 Z" stroke-linecap="round" />
</g>
		<g transform="matrix(1 0 0 1 32.71 -0.29)" id="sycpJmmUnjJ91RyDXx1yQ"  >
<path style="stroke: none; stroke-width: 1; stroke-dasharray: none; stroke-linecap: butt; stroke-dashoffset: 0; stroke-linejoin: miter; stroke-miterlimit: 4; fill: rgb(255,255,255); fill-rule: nonzero; opacity: 1;" vector-effect="non-scaling-stroke"  transform=" translate(-4297.53, -429.64)" d="M 4297.6 425.41 C 4299.928050062653 425.44741208091693 4301.78860087965 427.3583878586865 4301.76375908674 429.68660598492403 C 4301.738917293829 432.01482411116154 4299.838014964322 433.88566565964373 4297.5096966471765 433.87339487893166 C 4295.18137833003 433.86112409821965 4293.300300589207 431.97035063245687 4293.3 429.64200000000005 C 4293.268079385066 428.4981730674209 4293.713179991397 427.39257084167764 4294.528725459627 426.58992237154916 C 4295.344270927858 425.78727390142075 4296.456827153837 425.3598520075513 4297.6 425.41 Z M 4297.6 427.29900000000004 C 4296.6258523754395 427.17674417513496 4295.677709382703 427.6701011139565 4295.218797522026 428.5380354347903 C 4294.759885661348 429.405969755624 4294.885989911797 430.4673245133637 4295.53550054673 431.20356225775095 C 4296.185011181663 431.9398000021382 4297.222361073921 432.19725175449156 4298.140740634877 431.8501364088648 C 4299.059120195833 431.50302106323795 4299.666843451426 430.623789211921 4299.667 429.64200000000005 C 4299.7383076093665 429.0496314945948 4299.553289411231 428.455001081414 4299.158479336017 428.00766426663284 C 4298.763669260802 427.56032745185166 4298.196638146822 427.30285361298854 4297.6 427.3 Z" stroke-linecap="round" />
</g>
</g>
</g>
</g>
</g>
</svg>