<svg xmlns="http://www.w3.org/2000/svg" width="18.21" height="17.632" viewBox="0 0 18.21 17.632">
  <path id="Path_20917" data-name="Path 20917" d="M-3840.275,2913.17a.419.419,0,0,1-.191-.046.654.654,0,0,1-.321-.591l-.01-2.461a.2.2,0,0,0-.044-.126.134.134,0,0,0-.1-.052l-4.621.032a.588.588,0,0,1-.516-.638.589.589,0,0,1,.51-.644l5.28-.036a.588.588,0,0,1,.517.637l.006,1.3a.183.183,0,0,0,.091.165.119.119,0,0,0,.055.013.135.135,0,0,0,.105-.054l3.009-3.783a.207.207,0,0,0,0-.25l-3.043-3.741a.135.135,0,0,0-.1-.053.126.126,0,0,0-.057.014.186.186,0,0,0-.09.167l.006,1.3a.59.59,0,0,1-.51.645l-7.26.049a.139.139,0,0,0-.1.054.205.205,0,0,0-.042.126l.011,2.461a.589.589,0,0,1-.51.645.468.468,0,0,1-.363-.184l-4.646-5.71a.757.757,0,0,1,0-.908l4.594-5.773a.464.464,0,0,1,.364-.19.464.464,0,0,1,.36.185.725.725,0,0,1,.153.454l.011,2.459a.2.2,0,0,0,.044.127.134.134,0,0,0,.1.051l4.622-.032a.589.589,0,0,1,.516.638.589.589,0,0,1-.511.644l-5.28.036a.588.588,0,0,1-.516-.636l-.006-1.3a.185.185,0,0,0-.092-.166.131.131,0,0,0-.055-.013.137.137,0,0,0-.1.054l-3.01,3.782a.207.207,0,0,0,0,.25l3.044,3.741a.133.133,0,0,0,.1.053.119.119,0,0,0,.056-.014.184.184,0,0,0,.09-.166l-.006-1.3a.726.726,0,0,1,.153-.461.464.464,0,0,1,.357-.184l7.26-.05a.138.138,0,0,0,.1-.054.2.2,0,0,0,.042-.126l-.012-2.46a.59.59,0,0,1,.511-.645.471.471,0,0,1,.363.184l4.646,5.709a.76.76,0,0,1,0,.91l-4.594,5.772a.462.462,0,0,1-.361.189Z" transform="translate(3853.376 -2895.538)" fill="#fff"/>
</svg>

