<svg id="Cerrar_sesión" data-name="Cerrar sesión" xmlns="http://www.w3.org/2000/svg" width="13.034" height="10.776" viewBox="0 0 13.034 10.776">
  <g id="Grupo_1075" data-name="Grupo 1075" transform="translate(4.146 1.986)">
    <path id="Trazado_2443" data-name="Trazado 2443" d="M-1503.9-10945.141l-.425.465-2.5,2.727a.5.5,0,0,1-.367.158.5.5,0,0,1-.32-.113.45.45,0,0,1-.047-.656l1.941-2.115h-6.683a.476.476,0,0,1-.487-.465.475.475,0,0,1,.487-.461h6.683l-1.941-2.117a.448.448,0,0,1,.047-.654.5.5,0,0,1,.687.045l2.5,2.727Z" transform="translate(1512.785 10948.488)" fill="#004cac"/>
  </g>
  <g id="Grupo_1076" data-name="Grupo 1076">
    <path id="Trazado_2444" data-name="Trazado 2444" d="M-1627.887-10999.835h-8.293v-10.776h8.293v3.913h-.974v-2.987h-6.344v8.925h6.344v-3.327h.974Z" transform="translate(1636.179 11010.611)" fill="#004cac"/>
  </g>
</svg>
